<?xml version="1.0" encoding="utf-8"?>
<!-- Generator: Adobe Illustrator 27.0.0, SVG Export Plug-In . SVG Version: 6.00 Build 0)  -->
<svg version="1.1" id="Layer_1" xmlns="http://www.w3.org/2000/svg" xmlns:xlink="http://www.w3.org/1999/xlink" x="0px" y="0px"
	 viewBox="0 0 1500 250" style="enable-background:new 0 0 1500 250;" xml:space="preserve">
<g>
	<g>
		<path d="M50.3,149.2c-11.6-0.7-23.2-0.8-34.8,0c-7.6,0.5-12.3,7.2-11.6,14c1,14,18.2,12,28.7,11.8c0,0,0,0,0,0
			c10.6,0.1,28.1,2.2,29.2-12.2C62.2,156.8,57.1,149.6,50.3,149.2z"/>
		<path d="M40,53.2C40,53.1,40,53.1,40,53.2c20.2,5.1,30.4-22,8.8-26.4C12.4,19.4,8.8,55.7,40,53.2z"/>
		<path d="M61.3,99.3c-21.9-0.6-23,27.3-0.7,27.7C83.8,128.9,84.9,98.6,61.3,99.3z"/>
		<path d="M475.7,26.2l-141-23.6l0,0c-30.7,0-198.2,0-229.4,0c-16.2-0.6-18.2,22.7-2.5,25.6c18.4,2.3,37.2,0.5,55.8,1.1
			c19.3,2.8,11.7,25-8.7,22.1c-16.2,2.9-77.4-9.1-79.2,9.4C68.6,70.4,74,77,84.3,77.1c33.3,0.1,66.6,0,99.9,0.1
			c9.2,0,14.7,4.7,14.8,11.5c0.1,7.1-4.8,10.6-14.8,10.7c-30,0.7-60.2-1.7-90,1.3c-20.9,5.8-9.1,29.7,9.5,26.5
			c38.4-0.2,76.8-0.5,115.2-0.9c10.8-0.1,17.7,4.3,17.7,11.5c0,7.3-5.4,10.6-17.2,10.6c-46.3,0.8-92.8-1.7-139,1.2
			c-15.6,2.8-12.6,27.6,5.1,25.5c37.7,0.1,75.5,0,113.2,0.1c22.3-2.9,24.9,24.9,1.4,22.2c-21.7,0-43.3,0-65,0.1
			c-9.7-0.3-21.7,2.5-20.1,15c0.7,15.5,19.1,11.1,29.8,11.6c36.9,0,81.1,0,121.3,0l140.8,23.5l105.5-96.5L475.7,26.2z M424.5,52.4
			l-59,54l-24.2-4l59-54L424.5,52.4z M345.6,39.2l28.8,4.8l-59,54l-28.8-4.8L345.6,39.2z M293.1,193.1l-19.9-67.2l33.1,5.5l6,20.1
			c3.6,12.9,23.8,6.9,19.8-5.9l-3.1-10.5l28.5,4.8l19.9,67.2L293.1,193.1z M410.4,197.4l-19.9-67.2l63-57.7l19.9,67.2L410.4,197.4z"
			/>
	</g>
	<g>
		<path d="M539.5,226.1l31.6-198.5h40l-12.7,81h26.2l54.8-81h41L654,127.4l39.4,98.7h-40L621,144.3h-28.6l-13,81.8H539.5z"/>
		<path d="M717.1,226.1l-23.2-144h41l12.4,106.8l43.5-106.8H817l18.9,106.8l26.7-72.2c0.9-2.5,2-5.9,3.2-10.1
			c1.3-4.2,2.5-8.7,3.6-13.5c1.2-4.8,1.9-9.2,2.3-13.1h38.9c0,5.7-0.7,11.7-2.2,18c-1.4,6.3-3.2,12.3-5.3,18.2
			c-2.1,5.9-4.1,11-6.1,15.3l-44.8,94.7H810l-15.4-79.4l-35.1,79.4H717.1z"/>
		<path d="M902,226.1l22.7-144h40.2l-22.9,144H902z M933.1,60.9c-1.6,0-2.9-0.5-3.8-1.5c-0.9-1-1.2-2.3-0.8-3.9l4-26.3
			c0.7-3.8,2.9-5.6,6.5-5.6h30.8c1.8,0,3,0.5,3.6,1.6c0.6,1.1,0.9,2.4,0.7,4l-4,26.3c-0.7,3.6-2.8,5.4-6.2,5.4H933.1z"/>
		<path d="M957.1,226.1l32.7-204.7h40L1011.9,133c8.5-1.6,16-4.4,22.7-8.3c6.7-3.9,12.4-9.4,17.3-16.5c4.9-7.1,8.6-15.8,11.3-26.2
			h40.2c-3.6,13.2-8,24.2-13.1,32.9c-5.1,8.7-10.6,15.6-16.3,20.9c-5.8,5.3-11.4,9.4-17,12.5l38.1,77.8h-41l-30.5-65.7
			c-2.5,0.7-5.4,1.3-8.5,1.7c-3.2,0.4-5.8,0.7-8,0.7l-10,63.3H957.1z"/>
		<path d="M1294.8,226.1l22.7-144h40.2l-22.9,144H1294.8z M1325.9,60.9c-1.6,0-2.9-0.5-3.8-1.5c-0.9-1-1.2-2.3-0.8-3.9l4-26.3
			c0.7-3.8,2.9-5.6,6.5-5.6h30.8c1.8,0,3,0.5,3.6,1.6c0.6,1.1,0.9,2.4,0.7,4l-4,26.3c-0.7,3.6-2.8,5.4-6.2,5.4H1325.9z"/>
		<path d="M1349.9,226.1l32.7-204.7h40L1404.7,133c8.5-1.6,16-4.4,22.7-8.3c6.7-3.9,12.4-9.4,17.3-16.5c4.9-7.1,8.6-15.8,11.3-26.2
			h40.2c-3.6,13.2-8,24.2-13.1,32.9c-5.1,8.7-10.6,15.6-16.3,20.9c-5.8,5.3-11.4,9.4-17,12.5l38.1,77.8h-41l-30.5-65.7
			c-2.5,0.7-5.4,1.3-8.5,1.7c-3.2,0.4-5.8,0.7-8,0.7l-10,63.3H1349.9z"/>
	</g>
	<path d="M1242.8,17.6c-33.1,0-60,25.9-60,57.8c0,31.9,18.1,151.4,18.1,151.4l33.4-79c0,0,68.4-11.8,68.4-72.4
		C1302.8,43.5,1275.9,17.6,1242.8,17.6z M1240.8,103.1c-14.8,0-26.9-11.6-26.9-25.9s12-25.9,26.9-25.9c14.8,0,26.9,11.6,26.9,25.9
		S1255.6,103.1,1240.8,103.1z"/>
</g>
</svg>
